# xmcd CD database file generated by Grip 2.96
#
# Track frame offsets:
#       150
#       11734
#       27238
#       38550
#       52885
#       65315
#       74235
#       90005
#       103311
#       114643
#       129167
#       143167
#       158271
#       169054
#       183334
#       198661
#       213961
#       227673
#       239508
#       250442
#
# Disc length: 3477 seconds
#
# Revision: 0
# Processed by: cddbd v1.4PL0 Copyright (c) Steve Scherf et al.
# Submitted via: Grip 2.96
#
DISCID=0e0d9314
DTITLE=Paul Robeson - The Great Paul Robeson
DYEAR=1900
DGENRE=
TTITLE0=Ol' man river
TTITLE1=My old Kentucky home
TTITLE2=Water Boy
TTITLE3=Shenandoah
TTITLE4=Swing low, sweet chariot
TTITLE5=Joshua fit the battle of Jericho
TTITLE6=Rockin' chair
TTITLE7=Canoe song
TTITLE8=It ain't necessarily so
TTITLE9=Swanee river
TTITLE10=Land of my fathers
TTITLE11=Love song
TTITLE12=Deep river
TTITLE13=Climbing up (The mountain song)
TTITLE14=River, stay 'way from my door
TTITLE15=Mighty lak' a rose
TTITLE16=Ma curly headed baby
TTITLE17=Song of freedom
TTITLE18=Trees
TTITLE19=Sometimes I feel like a motherless child
EXTD=
EXTT0=
EXTT1=
EXTT2=
EXTT3=
EXTT4=
EXTT5=
EXTT6=
EXTT7=
EXTT8=
EXTT9=
EXTT10=
EXTT11=
EXTT12=
EXTT13=
EXTT14=
EXTT15=
EXTT16=
EXTT17=
EXTT18=
EXTT19=
PLAYORDER=
